<?xml version="1.0"?>
<svg width="5000" height="2811.9999999999995" xmlns="http://www.w3.org/2000/svg" xmlns:svg="http://www.w3.org/2000/svg" version="1.1" xml:space="preserve">

 <g class="layer">
  <title>Layer 1</title>
  <g id="svg_44">
   <g id="svg_45">
    <g id="Layer_1">
     <path d="m881.18,1220.21c-9.04,-1.9 -18.22,-3.12 -27.12,-5.57c-43.29,-11.81 -69.32,-41.14 -84.38,-82.69c11.92,-2.72 23.29,-5.3 35.07,-8.01c0.82,1.63 1.64,3.12 2.33,4.75c14.38,38.29 43.29,56.62 83.42,58.93c16.44,0.95 32.88,-0.41 48.36,-6.52c26.3,-10.45 40,-37.2 32.88,-63.95c-3.15,-11.68 -11.23,-19.28 -20.96,-25.8c-14.38,-9.64 -31.23,-11.81 -47.4,-16.29c-23.01,-6.25 -46.58,-11.13 -68.77,-19.42c-53.42,-19.82 -62.05,-88.53 -33.01,-124.24c17.53,-21.59 41.37,-31.77 68.49,-35.57c1.92,-0.27 3.84,-0.95 5.89,-1.36c10.55,0 20.96,0 31.51,0c11.23,2.72 22.74,4.48 33.56,8.28c33.01,11.95 52.05,36.93 63.56,69.38c-12.19,3.53 -23.56,6.92 -33.84,9.91c-5.48,-9.78 -9.45,-19.96 -16.16,-27.83c-25.89,-30.41 -78.08,-35.98 -110.96,-13.31c-24.38,16.84 -28.77,57.3 3.29,74.41c6.03,3.12 12.33,6.11 18.77,7.88c14.66,4.07 29.59,7.47 44.38,10.86c21.37,5.02 43.15,8.96 62.74,19.96c36.03,20.23 46.71,52.14 40.69,87.85c-6.58,39.1 -32.33,61.92 -69.73,72.64c-9.04,2.58 -18.63,3.8 -27.95,5.57c-11.78,0.14 -23.15,0.14 -34.66,0.14z" fill="#FFFFFF" id="svg_1"/>
     <path d="m411.45,1220.21c-10.41,-2.31 -21.1,-3.67 -31.23,-6.92c-34.93,-11.41 -59.59,-33.81 -73.01,-69.11c12.33,-4.07 24.25,-8.01 36.58,-12.08c1.1,2.85 2.05,5.3 3.01,7.74c9.59,25.53 27.67,41.28 54.79,46.71c21.1,4.21 42.19,3.8 62.74,-2.85c25.21,-8.15 38.36,-26.34 41.1,-52.14c2.33,-22.13 -10,-42.5 -31.92,-53.9c-15.48,-8.01 -32.33,-10.45 -49.59,-10.73c-12.74,-0.14 -25.48,0 -38.49,0c0,-10.59 0,-20.37 0,-31.23c6.99,0 13.97,0.41 20.96,-0.14c16.3,-1.09 33.15,-0.54 48.77,-4.48c42.6,-10.86 48.63,-60.69 26.71,-84.45c-13.15,-14.12 -30.14,-19.96 -48.9,-20.77c-36.58,-1.63 -61.37,13.71 -76.44,46.71c-0.68,1.36 -1.37,2.85 -2.19,4.75c-11.64,-3.26 -23.15,-6.52 -35.34,-10.05c11.51,-27.7 28.9,-49.83 56.71,-61.64c11.37,-4.89 23.97,-6.65 35.89,-9.91c1.23,-0.41 2.47,-0.81 3.7,-1.22c10.55,0 20.96,0 31.51,0c8.08,1.9 16.44,2.99 24.38,5.57c28.9,9.37 50.69,26.88 60,56.35c12.05,38.43 -9.18,77.67 -47.67,90.16c-1.92,0.68 -3.84,1.22 -7.26,2.44c4.25,1.22 7.12,2.04 10,2.85c30.55,9.91 53.56,27.83 58.9,60.96c6.16,38.02 -10,69.93 -43.56,89.75c-15.89,9.37 -33.29,14.26 -51.64,16.29c-1.92,0.27 -3.97,0.81 -5.89,1.36c-10.68,0 -21.64,0 -32.6,0z" fill="#FFFFFF" id="svg_2"/>
     <path d="m558.03,901.27c14.38,0 27.53,-0.27 40.69,0.27c2.19,0.14 4.93,2.72 6.3,4.89c20.55,34.08 40.96,68.3 61.51,102.51c1.23,2.17 2.6,4.21 4.52,7.06c1.78,-2.44 3.29,-4.48 4.66,-6.65c20.96,-34.22 41.92,-68.3 62.74,-102.51c2.47,-3.94 4.79,-5.7 9.59,-5.57c9.45,0.41 19.04,0.14 29.73,0.14c-7.67,12.49 -14.79,23.9 -21.92,35.44c-21.1,34.08 -42.05,68.16 -63.29,102.11c-2.6,4.07 -2.19,6.92 0.14,10.86c31.37,52.27 62.47,104.55 93.7,156.82c1.1,1.9 2.19,3.8 3.97,6.92c-14.93,0 -28.9,0.14 -42.88,-0.27c-1.64,0 -3.56,-3.12 -4.79,-5.02c-23.97,-39.92 -47.95,-79.97 -71.78,-120.03c-1.23,-2.04 -2.6,-4.21 -4.38,-7.06c-1.64,2.44 -3.01,4.34 -4.25,6.38c-24.93,39.92 -49.86,79.97 -74.52,120.03c-2.88,4.75 -6.03,6.38 -11.37,6.11c-9.32,-0.41 -18.63,-0.14 -29.04,-0.14c1.92,-3.26 3.29,-5.7 4.79,-8.15c30.82,-49.42 61.51,-98.71 92.47,-148c2.47,-4.07 2.6,-6.79 0.14,-10.86c-27.4,-45.62 -54.52,-91.38 -81.78,-137c-1.64,-2.44 -3.01,-4.75 -4.93,-8.28z" fill="#FFFFFF" id="svg_3"/>
     <path d="m70.49,1213.01c0,-103.87 0,-207.47 0,-311.34c2.19,-0.14 4.11,-0.41 6.16,-0.41c40.82,0 81.64,-0.27 122.6,0.14c23.29,0.27 45.21,5.3 63.56,20.77c40.14,33.81 40.82,99.93 1.1,131.43c-4.25,3.39 -9.04,6.11 -13.84,8.69c-4.66,2.44 -9.59,4.21 -14.93,6.38c20.41,47.93 40.82,95.86 61.64,144.74c-13.7,0 -26.44,0.27 -39.32,-0.27c-1.64,0 -3.7,-3.53 -4.66,-5.7c-17.53,-40.87 -35.07,-81.74 -52.19,-122.74c-2.33,-5.57 -5.07,-7.2 -10.96,-7.06c-27.12,0.41 -54.25,0.14 -82.19,0.14c0,45.21 0,90.02 0,135.37c-12.6,-0.14 -24.38,-0.14 -36.99,-0.14zm36.99,-168.09c30.41,0 60,0.14 89.73,-0.14c5.34,0 10.82,-1.36 16.16,-2.72c23.01,-5.97 39.45,-26.88 40.55,-51.32c1.23,-26.07 -10.14,-44.26 -33.29,-52.55c-6.58,-2.31 -13.7,-4.21 -20.68,-4.21c-30.41,-0.41 -60.69,-0.14 -91.1,-0.14c-0.41,0 -0.68,0.41 -1.37,0.81c0,36.52 0,73.05 0,110.25z" fill="#FFFFFF" id="svg_4"/>
     <g id="svg_5">
      <path d="m3775.16,1515.53c24.11,-15.75 48.49,-31.36 72.47,-47.39c59.73,-39.65 119.59,-78.89 178.77,-119.21c32.19,-22 62.33,-46.84 86.99,-77.12c22.05,-27.02 39.18,-56.89 44.52,-91.79c10.55,-69.25 -35.48,-127.36 -96.58,-137.41c-25.89,-4.21 -51.37,-2.85 -76.16,5.57c-36.99,12.63 -60,39.51 -73.01,74.81c-6.44,17.52 -9.59,36.12 -14.11,54.18c-0.55,2.44 -0.96,4.89 -1.64,8.01c-16.3,-4.07 -32.33,-8.01 -48.36,-11.95c-21.92,-5.43 -43.7,-11.13 -65.62,-16.02c-6.16,-1.36 -6.44,-4.21 -5.62,-8.96c9.86,-53.9 33.7,-100.75 71.64,-140.8c40.55,-42.63 90.41,-66.26 148.63,-73.05c53.84,-6.25 106.85,-3.26 157.12,17.92c76.71,32.45 123.97,89.48 136.44,171.76c13.56,89.61 -16.99,164.16 -85.21,223.63c-40.69,35.57 -85.62,65.45 -131.64,93.55c-45.75,27.97 -92.33,54.72 -138.63,82.01c-2.33,1.36 -4.52,2.72 -6.44,5.43c120.55,0 241.1,0 362.19,0c0,35.98 0,71.15 0,107.13c-2.33,0.14 -4.66,0.41 -7.12,0.41c-167.26,0 -334.66,0 -501.92,0c-2.33,0 -4.52,-0.14 -6.85,-0.14c0.14,-39.92 0.14,-80.25 0.14,-120.57z" fill="#F47C4B" id="svg_6"/>
      <path d="m4419.27,1295.84c0.68,-63.68 7.81,-126.14 31.23,-186.02c18.49,-47.25 44.66,-89.48 83.56,-123.15c36.85,-31.91 80.14,-49.42 128.9,-53.5c47.95,-4.07 94.38,1.36 137.95,22.4c52.19,25.25 88.63,65.99 113.42,117.18c23.01,47.39 37.81,97.35 42.74,149.76c7.4,79.7 1.78,158.45 -22.05,235.3c-16.03,51.87 -44.38,96.27 -85.34,132.66c-34.52,30.69 -75.07,48.2 -120.82,54.04c-43.01,5.57 -85.62,3.53 -126.99,-10.32c-53.7,-17.79 -92.88,-53.23 -122.33,-100.34c-27.26,-43.59 -44.52,-90.97 -51.92,-141.62c-4.79,-31.91 -6.85,-64.22 -10.14,-96.27c0.55,0 1.23,0 1.78,-0.14zm412.33,-12.22c-1.64,-28.38 -2.33,-50.51 -4.38,-72.64c-3.7,-40.19 -13.42,-79.16 -28.9,-116.63c-11.64,-28.24 -30.41,-50.65 -60.14,-61.51c-12.05,-4.34 -25.07,-7.06 -37.81,-8.15c-30.55,-2.72 -58.9,3.8 -83.56,22.95c-20.55,16.02 -33.7,37.2 -43.42,60.69c-17.67,42.63 -23.29,87.58 -25.89,133.06c-2.74,51.05 -1.51,102.11 6.58,152.75c4.93,31.09 12.47,61.51 25.89,90.16c12.74,27.43 32.47,47.93 61.64,58.25c23.29,8.28 47.4,9.1 71.51,5.02c40.55,-6.92 67.81,-31.09 86.3,-66.26c13.56,-25.8 20.41,-53.77 23.15,-82.28c4.25,-40.46 6.44,-81.06 9.04,-115.41z" fill="#F47C4B" id="svg_7"/>
      <path d="m4437.08,1636.1c-42.19,0 -83.7,0 -125.62,0c0,-43.86 0,-87.44 0,-131.71c2.47,-0.14 4.93,-0.41 7.4,-0.41c36.99,0 73.97,0.14 110.96,-0.14c5.75,0 7.95,1.22 7.81,7.47c-0.27,39.38 -0.14,78.75 -0.14,118.13c0,2.04 -0.14,3.94 -0.41,6.65z" fill="#F47C4B" id="svg_8"/>
     </g>
     <g id="svg_9">
      <path d="m381.18,2356.41c9.73,1.9 19.73,3.26 29.18,5.97c32.47,8.96 57.12,28.24 75.07,56.21c10.55,16.43 18.08,34.35 23.56,53.9c-15.89,3.8 -31.51,7.6 -47.12,11.41c-2.88,-8.42 -5.34,-16.57 -8.36,-24.58c-18.49,-46.71 -66.85,-64.77 -106.44,-60.29c-45.62,5.02 -71.1,32.72 -86.58,72.64c-13.15,33.81 -16.85,69.11 -15.75,105.09c0.96,29.33 4.93,58.11 17.12,85.13c13.7,30.28 34.11,53.9 67.12,64.22c46.71,14.66 96.03,-2.72 118.77,-41.55c8.9,-15.21 12.74,-31.77 13.84,-49.15c0.55,-9.91 0.14,-19.82 0.14,-30.41c-33.42,0 -66.16,0 -99.45,0c0,-14.39 0,-27.97 0,-41.96c50.14,0 100.14,0 150.69,0c0,68.43 0,136.59 0,205.84c-9.59,0 -19.04,0.14 -28.49,-0.27c-1.23,0 -3.01,-2.85 -3.56,-4.75c-3.7,-12.76 -7.26,-25.66 -10.82,-38.43c-0.55,-1.77 -1.1,-3.39 0,-3.12c-8.9,7.74 -17.53,15.75 -26.71,23.08c-18.77,14.66 -40.41,22.27 -63.97,24.98c-1.78,0.14 -3.42,0.81 -5.21,1.36c-10.96,0 -21.92,0 -32.88,0c-1.92,-0.41 -3.97,-1.09 -5.89,-1.36c-27.26,-2.99 -52.47,-11.95 -73.7,-29.33c-39.86,-32.72 -59.59,-76.44 -68.22,-125.87c-1.92,-11.13 -2.88,-22.27 -4.25,-33.54c0,-9.1 0,-18.06 0,-27.16c0.41,-2.85 1.1,-5.7 1.23,-8.55c2.19,-36.52 10.96,-71.15 29.04,-103.33c21.92,-38.97 52.33,-68.03 96.71,-80.25c10,-2.72 20.41,-4.21 30.55,-6.11c11.51,0.14 23.01,0.14 34.38,0.14z" fill="#FFFFFF" id="svg_10"/>
      <path d="m1824.88,2356.41c8.22,1.49 16.58,2.72 24.66,4.75c40,10.05 67.81,35.17 85.62,71.15c7.4,15.07 12.19,31.5 18.08,47.39c0.41,1.22 0.27,2.58 0.55,4.62c-15.62,3.12 -30.96,6.11 -46.58,9.23c-2.88,-8.28 -5.48,-16.43 -8.49,-24.3c-8.36,-21.18 -19.45,-40.46 -38.22,-54.31c-39.32,-28.92 -98.77,-19.14 -129.32,20.77c-17.53,22.95 -26.16,49.42 -30.41,77.39c-5.89,38.7 -6.3,77.53 2.33,115.96c5.48,24.58 15.34,47.12 31.64,66.8c39.45,47.79 111.92,45.21 147.53,-5.43c12.05,-17.11 19.32,-36.25 24.79,-56.08c0.41,-1.49 0.96,-2.99 1.64,-4.89c15.07,3.39 29.73,6.65 44.93,10.05c0,1.36 0.27,2.44 0,3.39c-8.22,30.82 -20,60.01 -41.51,84.45c-22.6,25.8 -51.51,39.51 -85.48,43.45c-1.51,0.14 -3.01,0.81 -4.38,1.22c-10.96,0 -21.92,0 -32.88,0c-9.73,-2.04 -19.59,-3.39 -29.18,-6.25c-39.32,-11.27 -66.03,-37.61 -85.89,-71.96c-19.59,-34.08 -29.04,-71.15 -31.64,-110.12c-2.6,-38.43 0.14,-76.31 12.74,-112.97c14.93,-43.18 40.41,-78.21 82.6,-99.12c15.62,-7.74 32.19,-12.08 49.59,-13.85c1.51,-0.14 3.01,-0.81 4.52,-1.22c10.82,-0.14 21.78,-0.14 32.74,-0.14z" fill="#FFFFFF" id="svg_11"/>
      <path d="m619.53,2771.89c-8.22,-1.77 -16.58,-2.99 -24.52,-5.43c-32.6,-9.78 -53.97,-31.23 -61.37,-63.95c-7.67,-34.35 2.19,-64.36 29.45,-87.98c19.59,-16.97 43.29,-24.3 68.22,-28.65c31.64,-5.43 63.42,-6.52 95.48,-4.48c3.42,0.27 6.85,0.27 10.27,0.27c0.68,0 1.23,-0.41 2.6,-0.81c-0.82,-17.52 0,-35.17 -6.44,-52c-5.89,-15.21 -18.49,-23.22 -33.42,-27.7c-25.62,-7.6 -51.37,-7.06 -76.71,1.36c-20.41,6.79 -33.56,20.91 -39.45,41.68c-0.41,1.49 -0.96,2.99 -1.64,4.89c-13.97,-2.44 -27.81,-4.75 -42.19,-7.2c2.33,-15.21 8.08,-28.38 17.26,-40.19c13.97,-18.06 33.01,-28.24 54.66,-33.81c33.29,-8.55 67.12,-9.5 100.96,-3.12c37.67,7.2 60.14,29.87 66.71,66.94c3.01,17.24 4.38,35.03 4.66,52.55c0.82,46.98 0.41,94.09 1.23,141.21c0.27,12.49 2.88,24.98 4.52,37.88c-14.52,0 -29.45,0 -45.62,0c-1.64,-16.57 -3.29,-33.27 -5.07,-50.78c-4.66,6.79 -8.36,13.17 -12.88,18.87c-18.08,23.22 -42.33,35.57 -71.51,39.1c-1.78,0.27 -3.56,0.81 -5.21,1.22c-10,0.14 -20,0.14 -30,0.14zm119.45,-154.24c-16.71,-2.85 -62.33,-2.72 -78.36,-0.14c-20.41,3.26 -40.27,8.01 -56.99,20.77c-18.63,14.12 -25.75,33.4 -21.64,55.67c3.97,22.27 19.18,35.3 41.1,40.19c73.42,16.16 127.12,-48.47 115.89,-116.5z" fill="#FFFFFF" id="svg_12"/>
      <path d="m1374.19,2771.89c-7.53,-1.63 -15.07,-2.85 -22.47,-4.75c-36.71,-9.91 -63.97,-32.59 -79.73,-66.12c-26.85,-56.89 -27.26,-115.28 2.6,-170.81c38.77,-71.96 117.95,-82.69 173.84,-56.76c33.97,15.75 53.42,43.99 63.84,78.89c6.58,22.27 9.04,45.08 8.9,68.7c-71.78,0 -143.43,0 -216.58,0c0.96,12.49 1.64,24.3 3.01,35.98c0.68,6.25 2.47,12.36 4.11,18.47c11.1,43.04 60.82,62.46 93.29,57.71c30.96,-4.48 51.37,-21.45 64.66,-48.2c1.23,-2.58 2.47,-5.3 3.84,-8.15c14.25,2.85 28.22,5.7 42.74,8.69c-4.25,14.66 -11.23,27.43 -20.82,38.7c-22.74,26.75 -51.51,42.5 -86.71,46.44c-1.1,0.14 -2.05,0.81 -3.15,1.22c-10.41,0 -20.82,0 -31.37,0zm96.58,-186.42c-0.68,-7.2 -0.96,-13.85 -2.05,-20.5c-4.79,-29.06 -18.77,-51.87 -47.26,-63.27c-34.93,-14.12 -74.66,-1.49 -96.58,30.01c-11.23,16.16 -16.3,34.35 -17.67,53.9c54.66,-0.14 108.63,-0.14 163.56,-0.14z" fill="#FFFFFF" id="svg_13"/>
      <path d="m3261.59,2771.89c-7.53,-1.63 -15.07,-2.85 -22.47,-4.75c-36.58,-9.91 -63.7,-32.18 -79.45,-65.58c-27.26,-57.3 -27.81,-116.09 2.74,-172.03c38.9,-71.42 117.53,-81.87 173.01,-56.35c36.3,16.7 56.44,46.98 65.62,84.45c3.97,15.89 4.93,32.45 7.26,48.74c0.55,3.94 0.82,8.01 1.23,12.08c0,0.95 0,1.77 0,2.72c-72.19,0 -144.38,0 -217.4,0c0.82,11.68 1.37,22.27 2.47,32.72c3.7,33.4 19.18,58.66 51.37,72.51c36.44,15.61 85.89,8.15 109.04,-37.34c2.05,-3.94 3.97,-8.01 6.16,-12.22c14.25,2.85 28.08,5.7 42.6,8.69c-0.82,2.72 -1.51,5.02 -2.47,7.33c-14.79,36.12 -41.78,59.61 -78.49,72.1c-9.59,3.26 -19.73,4.62 -29.59,6.92c-10.55,0 -21.1,0 -31.64,0zm96.58,-186.29c-0.68,-7.33 -1.1,-14.12 -2.19,-20.77c-4.79,-29.06 -18.9,-51.87 -47.26,-63.27c-41.64,-16.7 -88.36,4.48 -106.03,47.39c-4.79,11.68 -7.4,23.76 -8.08,36.66c54.66,0 108.49,0 163.56,0z" fill="#FFFFFF" id="svg_14"/>
      <path d="m2091.87,2771.89c-7.53,-1.63 -15.07,-2.85 -22.47,-4.89c-37.95,-10.45 -61.23,-36.8 -76.85,-70.88c-15.07,-32.99 -18.08,-67.89 -14.79,-103.46c2.74,-29.87 11.64,-57.57 30.55,-81.33c30.55,-38.56 70.82,-54.45 119.73,-49.42c45.07,4.62 76.99,28.51 96.3,67.75c26.85,54.31 27.81,110.52 2.74,165.65c-18.36,40.46 -50.14,66.4 -95.21,74.54c-3.29,0.54 -6.58,1.36 -9.86,2.04c-10,0 -20,0 -30.14,0zm101.51,-156.28c-0.27,-22.95 -1.78,-45.62 -11.23,-66.53c-13.56,-30.01 -36.44,-48.47 -70.41,-49.83c-34.38,-1.49 -64.25,19.82 -75.34,54.72c-13.56,42.5 -13.15,85.68 1.1,127.9c11.23,33.4 40.69,53.23 75.21,51.87c34.25,-1.36 56.44,-20.5 69.59,-50.65c9.32,-21.59 10.82,-44.67 11.1,-67.48z" fill="#FFFFFF" id="svg_15"/>
      <path d="m2900.09,2771.89c-7.53,-1.63 -15.07,-2.85 -22.47,-4.89c-37.95,-10.45 -61.23,-36.8 -76.85,-70.88c-15.07,-32.99 -18.08,-67.89 -14.79,-103.46c2.74,-29.87 11.64,-57.57 30.55,-81.33c30.55,-38.56 70.82,-54.45 119.73,-49.42c45.07,4.62 76.99,28.51 96.3,67.75c26.85,54.31 27.81,110.52 2.74,165.65c-18.36,40.46 -50.14,66.4 -95.21,74.54c-3.29,0.54 -6.58,1.36 -9.86,2.04c-10.14,0 -20.14,0 -30.14,0zm-64.52,-154.79c-0.27,17.92 1.51,37.34 6.99,56.35c10.82,38.02 40.82,61.51 78.36,60.01c34.25,-1.36 56.3,-20.64 69.45,-50.78c6.85,-15.48 9.32,-32.04 10.41,-48.74c1.78,-28.79 1.37,-57.57 -10.41,-84.59c-13.01,-30.01 -35.75,-48.34 -69.32,-50.37c-32.6,-1.9 -61.37,17.38 -74.38,48.47c-9.04,21.86 -11.23,44.67 -11.1,69.65z" fill="#FFFFFF" id="svg_16"/>
      <path d="m2630.22,2771.89c-9.73,-1.77 -19.73,-3.12 -29.32,-5.57c-40.27,-10.05 -67.4,-34.35 -80.55,-73.59c-0.55,-1.63 -0.82,-3.39 -1.51,-5.57c14.79,-2.99 28.9,-5.97 43.15,-8.83c0.41,0.68 0.96,1.22 1.1,1.77c8.77,28.79 29.18,44.4 57.95,50.24c24.38,5.02 48.9,6.11 72.6,-3.53c21.51,-8.69 31.37,-22.95 30.96,-43.86c-0.27,-12.76 -6.44,-22.27 -16.85,-29.33c-13.97,-9.5 -30.41,-11.68 -46.44,-14.8c-22.33,-4.48 -44.79,-8.28 -66.71,-13.85c-19.32,-4.89 -36.44,-14.66 -48.9,-30.41c-21.78,-27.29 -20.14,-70.47 3.15,-97.22c16.85,-19.42 38.36,-30.14 63.56,-33.94c30.69,-4.75 60.96,-3.12 90.14,8.15c29.86,11.68 48.22,33.67 57.81,64.63c-14.11,2.99 -27.95,6.11 -41.78,9.1c-0.55,-0.68 -1.23,-1.22 -1.37,-1.77c-12.6,-29.74 -36.71,-42.5 -67.81,-44.13c-17.95,-0.95 -35.48,1.09 -51.51,10.45c-22.19,12.9 -26.85,41.68 -9.59,58.25c9.59,9.1 21.78,12.9 34.38,15.34c26.16,5.02 52.47,9.37 78.36,15.21c20.27,4.62 38.49,13.58 53.15,29.06c26.85,28.38 30.82,89.89 -17.26,121.66c-19.04,12.63 -40,19.01 -62.6,21.59c-2.47,0.27 -4.93,0.95 -7.26,1.36c-12.19,-0.41 -24.52,-0.41 -36.85,-0.41z" fill="#FFFFFF" id="svg_17"/>
      <path d="m866.11,2763.34c-14.79,0 -28.77,0 -43.42,0c0,-97.76 0,-195.52 0,-293.83c12.74,0 25.62,0 39.04,0c0,17.65 0,35.17 0,52.68c0.41,0.14 0.82,0.27 1.23,0.41c2.33,-3.67 4.52,-7.33 6.85,-11c14.52,-22.95 33.01,-41.01 60.41,-47.93c46.44,-11.68 89.18,12.36 104.25,58.25c0.82,2.31 1.37,4.75 2.47,8.28c1.37,-2.44 2.33,-4.07 3.15,-5.7c9.04,-18.6 20.55,-35.17 37.67,-47.52c40.27,-28.92 100,-18.47 127.67,22.54c9.45,13.99 13.01,29.87 13.84,46.16c1.23,26.88 1.51,53.77 1.64,80.65c0.27,43.04 0,85.95 0,128.99c0,2.44 0,4.89 0,7.74c-15.07,0 -29.59,0 -45.21,0c0,-2.44 0,-5.02 0,-7.74c0,-62.19 0,-124.37 -0.14,-186.7c0,-8.15 -0.55,-16.29 -2.19,-24.3c-6.99,-35.71 -44.52,-55.53 -78.08,-40.87c-30,13.03 -46.71,36.52 -51.1,68.57c-1.23,9.1 -1.64,18.47 -1.64,27.7c-0.14,51.6 -0.14,103.19 -0.14,154.79c0,2.72 0,5.3 0,8.42c-15.07,0 -29.59,0 -44.93,0c0,-2.58 0,-5.16 0,-7.88c0,-61.51 0.14,-123.02 -0.14,-184.66c0,-9.91 -0.82,-19.96 -3.15,-29.6c-9.86,-40.05 -56.58,-56.48 -90.69,-32.18c-21.37,15.21 -33.15,36.52 -35.89,62.19c-1.37,13.03 -1.37,26.21 -1.37,39.24c-0.14,48.47 0,96.81 0,145.28c-0.14,2.85 -0.14,5.3 -0.14,8.01z" fill="#FFFFFF" id="svg_18"/>
      <path d="m2266.25,2469.38c14.25,0 27.81,0 42.19,0c0,17.24 0,34.22 0,53.09c5.89,-8.15 10.27,-14.8 15.21,-21.18c29.32,-37.34 75.07,-50.92 117.12,-33.27c32.19,13.44 53.15,36.93 56.44,72.78c1.51,16.84 2.74,33.81 2.88,50.78c0.41,55.13 0.14,110.39 0.14,165.51c0,2.04 -0.14,3.94 -0.27,6.25c-14.11,0 -27.95,0 -43.01,0c0,-2.85 0,-5.7 0,-8.55c0,-59.2 0.14,-118.54 -0.14,-177.73c0,-11 -1.23,-22.13 -3.15,-32.99c-6.3,-34.35 -39.18,-48.2 -67.81,-44.67c-36.44,4.48 -63.01,35.03 -70.41,71.01c-2.47,11.81 -3.15,24.17 -3.15,36.39c-0.41,49.29 -0.14,98.58 -0.14,148c0,2.72 0,5.3 0,8.55c-15.48,0 -30.41,0 -45.89,0c0,-97.9 0,-195.66 0,-293.96z" fill="#FFFFFF" id="svg_19"/>
      <path d="m3074.33,2364.83c15.34,0 30,0 45.34,0c0,132.79 0,265.45 0,398.51c-15.07,0 -30,0 -45.34,0c0,-132.66 0,-265.31 0,-398.51z" fill="#FFFFFF" id="svg_20"/>
     </g>
     <g id="svg_21">
      <path d="m2493.78,2282.41c-13.15,-1.36 -26.3,-2.44 -39.45,-4.07c-83.97,-10.73 -156.03,-45.35 -213.15,-107.94c-62.33,-68.3 -99.59,-149.22 -118.77,-238.84c-13.15,-61.64 -17.12,-123.97 -13.56,-186.7c5.75,-101.56 32.74,-196.47 91.78,-280.93c44.25,-63.27 99.86,-112.97 172.88,-141.75c38.36,-15.21 78.36,-23.22 119.59,-25.66c57.12,-3.53 112.88,2.17 166.85,21.45c71.51,25.53 126.99,71.56 170.55,132.38c44.25,61.64 72.05,130.21 86.44,204.35c11.92,61.37 14.66,123.42 10.55,185.61c-5.21,80.52 -22.47,158.05 -61.1,229.87c-38.36,71.15 -90.55,129.4 -162.88,168.23c-40.55,21.72 -83.84,34.62 -129.59,40.19c-12.6,1.49 -25.34,2.72 -37.95,4.07c-13.84,-0.27 -27.95,-0.27 -42.19,-0.27zm246.85,-516.23c0.27,-25.12 -3.15,-74 -12.6,-122.34c-8.36,-42.23 -21.51,-82.96 -43.84,-120.3c-20.68,-34.49 -48.63,-60.83 -86.58,-75.63c-35.89,-13.99 -73.01,-16.43 -110.96,-11.54c-44.38,5.84 -82.19,24.17 -112.19,57.43c-22.88,25.25 -38.08,54.85 -49.18,86.76c-19.45,55.67 -26.16,113.38 -28.22,171.76c-2.05,56.48 -0.55,112.97 9.18,168.91c7.4,41.96 18.77,82.69 39.73,120.3c45.34,81.06 116.85,110.93 202.47,99.12c56.58,-7.88 99.86,-38.7 133.56,-83.23c23.42,-30.96 35.07,-67.07 43.29,-104.41c11.78,-53.5 15.07,-108.08 15.34,-186.83z" fill="#FFFFFF" id="svg_22"/>
      <path d="m3338.99,2282.41c-10.41,-0.95 -20.82,-1.77 -31.23,-2.72c-73.84,-6.25 -143.7,-25.53 -207.4,-63.95c-68.08,-41.01 -109.59,-101.7 -131.1,-176.92c-0.14,-0.41 0,-0.95 0,-2.17c10,-2.17 20.14,-4.48 30.27,-6.65c44.11,-9.23 88.08,-18.47 132.19,-27.83c3.84,-0.81 6.16,-1.36 7.4,3.67c15.34,65.04 57.95,104.01 120.82,123.15c40.96,12.49 83.15,15.21 125.75,13.99c33.97,-0.95 67.26,-5.57 98.49,-19.42c32.47,-14.39 58.63,-35.71 72.47,-69.25c17.81,-43.18 3.42,-117.45 -58.49,-144.06c-26.3,-11.27 -53.7,-18.33 -81.1,-25.53c-66.85,-17.52 -133.7,-34.62 -200.27,-53.23c-34.93,-9.78 -68.63,-23.22 -98.49,-44.26c-41.92,-29.33 -68.22,-70.06 -83.56,-117.58c-24.79,-76.72 -21.37,-152.07 18.22,-223.63c29.04,-52.55 74.66,-88.26 128.36,-113.92c41.1,-19.55 84.66,-30.01 129.86,-34.22c62.6,-5.84 124.38,-1.77 184.93,15.34c47.95,13.58 92.74,33.81 131.78,65.04c39.18,31.23 66.03,70.74 80,118.67c0.55,1.63 0.82,3.39 1.23,5.57c-24.66,6.11 -48.9,12.22 -73.15,18.19c-28.77,7.06 -57.4,13.85 -86.16,21.05c-4.38,1.09 -6.44,0.68 -8.08,-3.8c-22.6,-59.34 -67.67,-90.43 -129.45,-99.93c-42.19,-6.52 -84.11,-5.3 -125.21,6.79c-27.12,8.01 -50.14,22.54 -67.4,45.08c-28.9,37.34 -34.25,102.24 21.92,140.67c28.22,19.28 60,30.01 92.74,38.15c66.16,16.7 132.33,32.86 198.22,50.37c37.67,10.05 73.29,25.53 106.58,46.16c47.4,29.19 76.03,72.37 94.11,123.42c7.67,21.59 12.33,43.86 13.97,66.67c0.14,1.77 0.82,3.39 1.23,5.16c0,13.17 0,26.21 0,39.38c-0.41,1.9 -0.96,3.94 -1.23,5.84c-3.01,18.19 -4.66,36.8 -9.32,54.58c-17.67,67.75 -59.45,117.86 -117.81,155.47c-60.55,39.1 -127.95,57.57 -199.32,63.82c-10.41,0.95 -20.82,1.77 -31.23,2.72c-16.85,0.14 -33.7,0.14 -50.55,0.14z" fill="#FFFFFF" id="svg_23"/>
      <path d="m4.6,2267.47c5.89,-17.79 11.51,-34.62 17.12,-51.46c100.41,-299.66 200.69,-599.33 300.96,-898.99c1.78,-5.16 3.84,-6.79 9.45,-6.79c66.85,0.27 133.7,0.27 200.69,0c5.21,0 7.53,1.49 9.18,6.38c106.3,314.33 212.74,628.66 319.04,942.98c0.82,2.31 1.37,4.75 2.33,8.01c-2.74,0 -4.93,0 -7.12,0c-57.26,0 -114.52,-0.14 -171.92,0.14c-5.75,0 -7.67,-2.04 -9.45,-6.92c-24.11,-71.69 -48.36,-143.25 -72.47,-214.8c-1.64,-4.89 -3.7,-6.52 -9.04,-6.52c-119.32,0.14 -238.77,0.14 -358.08,0c-4.93,0 -6.99,1.49 -8.49,6.11c-23.56,71.56 -47.4,142.98 -70.96,214.53c-1.78,5.43 -3.97,7.74 -10.27,7.6c-44.25,-0.27 -88.63,-0.14 -132.88,-0.14c-2.33,-0.14 -4.79,-0.14 -8.08,-0.14zm267.67,-366.74c93.97,0 187.12,0 281.1,0c-46.71,-141.89 -93.29,-283.1 -139.86,-424.45c-0.41,0.14 -0.96,0.14 -1.37,0.27c-46.58,141.35 -93.15,282.69 -139.86,424.17z" fill="#FFFFFF" id="svg_24"/>
      <path d="m1554.6,1903.18c53.15,-64.63 110.69,-122.2 165.48,-182.08c48.49,-52.95 97.53,-105.23 146.58,-157.78c2.05,-2.17 5.62,-4.21 8.49,-4.21c54.52,-0.27 109.04,-0.14 163.7,-0.14c1.1,0 2.19,0.14 4.66,0.27c-7.26,8.01 -13.7,15.21 -20.27,22.27c-62.47,68.03 -125.07,136.19 -187.81,204.08c-5.21,5.57 -6.3,9.5 -2.6,16.84c76.71,152.62 153.01,305.5 229.45,458.39c0.96,1.9 1.78,3.94 3.01,6.79c-3.15,0 -5.62,0 -8.08,0c-51.37,0 -102.74,-0.14 -154.11,0.14c-5.48,0 -8.36,-1.63 -10.82,-6.52c-58.36,-116.36 -116.71,-232.73 -175.21,-349.09c-1.1,-2.17 -2.33,-4.34 -3.97,-7.47c-3.7,3.94 -6.99,7.47 -10.14,11.13c-48.08,53.36 -96.03,106.59 -143.84,160.08c-2.6,2.85 -4.25,7.47 -4.25,11.27c-0.27,57.3 -0.14,114.46 -0.14,171.76c0,2.72 0,5.3 0,8.28c-51.51,0 -102.33,0 -153.56,0c0,-318.67 0,-637.35 0,-956.43c50.82,0 101.64,0 153.56,0c-0.14,197.02 -0.14,394.03 -0.14,592.4z" fill="#FFFFFF" id="svg_25"/>
      <path d="m949.12,1559.25c48.49,0 96.44,0 144.66,0c0,54.99 0,109.71 0,164.29c0.41,0.14 0.82,0.27 1.37,0.27c0.96,-2.31 1.92,-4.62 2.74,-7.06c13.56,-40.05 30.96,-78.34 59.18,-110.52c28.9,-32.99 63.97,-57.3 108.08,-65.45c15.21,-2.85 31.1,-2.31 47.26,-3.39c0,58.52 0,115.41 0,172.71c-10.68,0.68 -21.64,0.95 -32.33,2.04c-34.93,3.39 -68.08,12.22 -96.3,34.49c-13.97,11 -24.93,24.44 -33.15,40.05c-19.32,36.93 -33.15,75.63 -38.63,117.04c-1.64,12.22 -2.05,24.85 -2.05,37.2c-0.14,105.64 -0.14,211.27 -0.14,316.91c0,2.85 0,5.84 0,9.1c-53.84,0 -107.12,0 -160.96,0c0.27,-235.71 0.27,-471.42 0.27,-707.68z" fill="#FFFFFF" id="svg_26"/>
     </g>
    </g>
    <g id="Gray_Buttons">
     <path d="m2402.14,488.63c103.29,0 206.71,0 310,0c29.73,0 55.48,10.45 75.34,32.99c25.48,28.79 33.01,62.59 21.1,99.25c-12.05,36.93 -38.08,59.47 -75.75,67.48c-6.58,1.36 -13.42,2.04 -20.14,2.04c-207.26,0.14 -414.52,0.14 -621.92,0c-48.49,0 -88.36,-32.45 -98.77,-79.7c-12.74,-57.98 28.08,-115.14 86.58,-121.25c5.07,-0.54 10.14,-0.81 15.34,-0.81c102.74,0 205.48,0 308.22,0z" fill="#52585E" id="svg_27"/>
     <path d="m1603.23,211.51c-103.7,0 -207.53,0.14 -311.23,0c-32.74,0 -59.73,-12.9 -80,-38.97c-45.89,-59.2 -13.29,-146.51 59.86,-160.76c6.58,-1.22 13.42,-2.04 20.14,-2.04c207.26,-0.14 414.52,-0.14 621.92,0c48.49,0 88.36,32.45 98.77,79.7c12.05,54.58 -23.7,109.57 -78.08,120.03c-7.4,1.36 -15.07,2.04 -22.6,2.04c-102.88,0 -205.75,0 -308.77,0z" fill="#CD6130" id="svg_28"/>
     <path d="m1603.23,967.8c103.15,0 206.3,0 309.45,0c28.08,0 52.88,9.1 72.6,29.33c27.81,28.51 36.58,63 25.07,101.16c-11.51,37.88 -37.81,60.96 -76.3,69.25c-6.58,1.36 -13.42,2.04 -20.14,2.04c-207.26,0.14 -414.52,0.14 -621.92,0c-47.4,0 -87.12,-31.36 -98.22,-77.26c-14.25,-58.66 26.71,-117.72 86.03,-123.83c5.34,-0.54 10.55,-0.81 15.89,-0.81c102.47,0.14 204.93,0.14 307.54,0.14z" fill="#547BBD" id="svg_29"/>
     <path d="m3199.54,211.51c-103.29,0 -206.71,0.27 -310,-0.14c-38.9,-0.14 -69.04,-17.65 -88.36,-51.87c-34.11,-60.83 3.42,-138.09 71.92,-148.54c5.62,-0.81 11.37,-1.22 17.12,-1.22c206.44,0 413.01,0 619.45,-0.14c50.96,0 86.99,33.81 98.22,72.64c17.4,60.01 -23.29,121.93 -84.79,128.58c-4.93,0.54 -9.73,0.81 -14.66,0.81c-103.01,-0.14 -205.89,-0.14 -308.9,-0.14z" fill="#8CB94A" id="svg_30"/>
     <path d="m3200.22,1169.7c-103.56,0 -207.12,0.27 -310.69,-0.14c-38.63,-0.14 -68.77,-17.38 -88.08,-51.32c-34.66,-60.83 2.74,-138.63 71.51,-149.09c5.62,-0.81 11.37,-1.22 17.12,-1.22c206.44,0 413.01,0 619.45,-0.14c48.9,0 84.66,31.23 97.12,68.98c20.14,60.83 -20.68,125.46 -83.7,132.11c-4.93,0.54 -9.73,0.81 -14.66,0.81c-102.6,0 -205.34,0 -308.08,0z" fill="#F4CE33" id="svg_31"/>
     <path d="m2388.85,211.51c-24.79,0 -49.45,0.14 -74.25,0c-28.77,-0.27 -53.7,-10.59 -73.29,-32.18c-25.89,-28.79 -33.56,-62.73 -21.78,-99.66c11.78,-36.8 37.53,-59.2 74.93,-67.75c6.58,-1.49 13.42,-2.17 20.14,-2.17c49.73,-0.14 99.45,-0.27 149.18,0c43.97,0.27 81.51,27.83 95.07,69.11c19.32,59.06 -18.36,121.66 -79.18,131.3c-5.62,0.95 -11.37,1.22 -17.12,1.22c-24.52,0.14 -49.18,0.14 -73.7,0.14z" fill="#52585E" id="svg_32"/>
     <path d="m2389.13,1169.7c-24.93,0 -49.86,0.27 -74.93,0c-28.36,-0.27 -53.01,-10.45 -72.33,-31.5c-26.16,-28.65 -34.25,-62.46 -22.74,-99.53c11.64,-37.34 37.53,-60.15 75.48,-68.57c6.58,-1.49 13.42,-2.04 20.14,-2.04c49.45,-0.14 99.04,-0.27 148.49,0c45.62,0.27 84.38,29.74 96.58,73.05c16.99,60.56 -23.56,121.39 -85.48,128.04c-4.52,0.54 -9.04,0.68 -13.42,0.68c-23.84,-0.14 -47.81,-0.14 -71.78,-0.14z" fill="#52585E" id="svg_33"/>
     <path d="m1615.56,690.54c-24.79,0 -49.45,0.14 -74.25,0c-28.63,-0.27 -53.42,-10.32 -72.88,-31.5c-26.16,-28.65 -34.25,-62.46 -22.74,-99.53c11.51,-37.34 37.53,-60.15 75.48,-68.7c6.3,-1.36 13.01,-2.04 19.45,-2.04c49.86,-0.14 99.86,-0.27 149.73,0c47.67,0.14 87.95,32.99 97.67,80.25c12.6,61.51 -31.1,115 -86.58,120.84c-5.07,0.54 -10.14,0.81 -15.34,0.81c-23.42,0 -46.99,-0.14 -70.55,-0.14z" fill="#52585E" id="svg_34"/>
     <path d="m3188.17,488.63c24.79,0 49.45,-0.14 74.25,0c22.88,0.14 43.84,6.65 61.51,21.32c33.15,27.56 45.89,63.27 35.07,105.23c-10.68,41.55 -39.04,65.72 -80.55,74c-5.21,1.09 -10.55,1.22 -15.89,1.36c-49.73,0.14 -99.45,0.27 -149.18,0c-42.33,-0.27 -78.9,-25.8 -93.7,-65.04c-22.47,-59.61 15.34,-125.73 77.67,-135.37c5.89,-0.95 11.78,-1.22 17.67,-1.22c24.52,-0.27 48.9,-0.27 73.15,-0.27z" fill="#52585E" id="svg_35"/>
    </g>
    <g id="Button_Labels">
     <g id="svg_36">
      <path d="m3249.81,647.77l-25.89,0l-10.27,-26.48l-46.99,0l-9.73,26.48l-25.21,0l45.89,-116.63l25.07,0l47.12,116.63zm-43.84,-46.16l-16.16,-43.31l-15.89,43.31l32.05,0z" fill="#EF4658" id="svg_37"/>
     </g>
     <g id="svg_38">
      <path d="m2347.21,1015.18l46.99,0c9.32,0 16.3,0.41 20.82,1.09c4.52,0.81 8.63,2.31 12.33,4.75c3.56,2.44 6.58,5.7 9.04,9.78s3.56,8.55 3.56,13.58c0,5.43 -1.51,10.45 -4.52,15.07c-3.01,4.62 -6.99,8.01 -12.05,10.32c7.12,2.04 12.74,5.57 16.58,10.59c3.84,5.02 5.75,10.86 5.75,17.52c0,5.3 -1.23,10.45 -3.7,15.48s-5.89,8.96 -10.14,11.95c-4.25,2.99 -9.59,4.89 -15.89,5.57c-3.97,0.41 -13.56,0.68 -28.63,0.81l-40,0l0,-116.5l-0.14,0zm23.7,19.42l0,27.02l15.62,0c9.32,0 15.07,-0.14 17.26,-0.41c4.11,-0.54 7.26,-1.9 9.59,-4.21s3.42,-5.3 3.42,-9.1c0,-3.67 -0.96,-6.52 -3.01,-8.83c-2.05,-2.31 -4.93,-3.67 -8.9,-4.07c-2.33,-0.27 -9.18,-0.41 -20.27,-0.41l-13.7,0zm0,46.44l0,31.23l22.05,0c8.49,0 13.97,-0.27 16.3,-0.68c3.56,-0.68 6.44,-2.17 8.63,-4.62s3.29,-5.7 3.29,-9.91c0,-3.53 -0.82,-6.52 -2.6,-8.96c-1.78,-2.44 -4.25,-4.21 -7.4,-5.3s-10.27,-1.63 -21.1,-1.63l-19.18,0l0,-0.14z" fill="#EDC05A" id="svg_39"/>
     </g>
     <g id="svg_40">
      <path d="m2334.2,169.82l40.27,-60.83l-36.44,-55.81l27.81,0l23.56,37.47l23.15,-37.47l27.53,0l-36.58,56.62l40.27,60.01l-28.63,0l-26.03,-40.33l-26.16,40.33l-28.77,0z" fill="#6A91CB" id="svg_41"/>
     </g>
     <g id="svg_42">
      <path d="m1604.88,647.77l0,-49.15l-43.15,-67.48l27.81,0l27.67,46.16l27.12,-46.16l27.4,0l-43.29,67.75l0,48.88l-23.56,0z" fill="#89C651" id="svg_43"/>
     </g>
    </g>
   </g>
  </g>
 </g>
</svg>